<svg xmlns="http://www.w3.org/2000/svg" height="511pt" version="1.1" viewBox="0 -33 511.99921 511" width="511pt">
<g id="surface1">
<path d="M 476.859375 147.617188 L 476.859375 120.507812 C 476.859375 89.542969 452.085938 64.769531 421.121094 64.769531 L 274.933594 64.769531 C 263.484375 64.769531 252.734375 58.460938 246.890625 48.644531 L 234.738281 27.960938 C 224.570312 11.25 206.226562 0.5 186.59375 0.5 L 90.890625 0.5 C 75.464844 0.5 60.976562 6.808594 50.34375 18.027344 C 39.707031 29.246094 34.214844 44.085938 34.917969 59.511719 L 38.890625 147.734375 L 35.148438 147.734375 C 24.984375 147.734375 15.402344 152.058594 8.742188 159.65625 C 2.082031 167.25 -1.074219 177.417969 0.328125 187.464844 L 29.308594 396.050781 C 33.164062 423.628906 57 444.542969 84.8125 444.542969 L 427.542969 444.542969 C 455.472656 444.542969 479.308594 423.511719 483.167969 395.816406 L 511.679688 187.464844 C 513.082031 177.417969 509.808594 167.25 503.148438 159.65625 C 496.609375 152.058594 487.375 147.617188 476.859375 147.617188 Z M 58.171875 58.574219 C 57.820312 49.578125 60.976562 40.8125 67.167969 34.269531 C 73.363281 27.726562 81.777344 23.871094 90.773438 23.871094 L 186.476562 23.871094 C 197.929688 23.871094 208.679688 30.179688 214.523438 39.996094 L 226.675781 60.679688 C 236.722656 77.507812 255.1875 88.257812 274.820312 88.257812 L 421.003906 88.257812 C 439 88.257812 453.371094 102.511719 453.371094 120.625 L 453.371094 147.734375 L 62.261719 147.734375 Z M 488.542969 184.195312 L 460.03125 392.660156 C 457.8125 408.785156 443.90625 421.171875 427.664062 421.171875 L 84.929688 421.171875 C 68.6875 421.171875 54.78125 408.785156 52.5625 392.777344 L 23.464844 184.3125 C 23 180.921875 23.933594 177.652344 26.269531 175.082031 C 28.605469 172.507812 31.644531 171.105469 35.035156 171.105469 L 476.976562 171.105469 C 480.363281 171.105469 483.519531 172.394531 485.738281 175.082031 C 488.078125 177.652344 489.011719 180.804688 488.542969 184.195312 Z M 488.542969 184.195312 " style=" stroke:none;fill-rule:nonzero;fill:rgb(0%,0%,0%);fill-opacity:1;" />
<path d="M 330.675781 237.945312 L 351.824219 216.796875 C 356.382812 212.238281 356.382812 204.878906 351.824219 200.320312 C 347.269531 195.761719 339.90625 195.761719 335.347656 200.320312 L 309.992188 225.675781 C 293.632812 217.496094 275.402344 211.886719 256.003906 211.886719 C 185.191406 211.886719 130.152344 286.207031 127.816406 289.363281 C 124.777344 293.453125 124.777344 299.0625 127.816406 303.152344 C 129.21875 305.019531 149.667969 332.714844 181.21875 354.449219 L 160.066406 375.601562 C 155.511719 380.15625 155.511719 387.519531 160.066406 392.078125 C 162.40625 394.414062 165.328125 395.464844 168.363281 395.464844 C 171.402344 395.464844 174.324219 394.296875 176.660156 392.078125 L 202.019531 366.71875 C 218.378906 374.898438 236.609375 380.507812 256.007812 380.507812 C 326.820312 380.507812 381.859375 306.1875 384.195312 303.035156 C 387.234375 298.945312 387.234375 293.335938 384.195312 289.246094 C 382.792969 287.375 362.226562 259.679688 330.675781 237.945312 Z M 152.238281 296.140625 C 166.847656 278.84375 208.5625 235.140625 256.003906 235.140625 C 268.742188 235.140625 280.894531 238.296875 292.347656 243.203125 L 286.386719 249.164062 C 277.625 243.4375 267.105469 240.167969 255.886719 240.167969 C 225.039062 240.167969 199.796875 265.289062 199.796875 296.257812 C 199.796875 307.476562 203.1875 317.992188 208.796875 326.753906 L 197.929688 337.625 C 176.894531 323.601562 160.417969 305.722656 152.238281 296.140625 Z M 288.722656 296.140625 C 288.722656 314.136719 274.117188 328.859375 256.003906 328.859375 C 251.214844 328.859375 246.773438 327.808594 242.683594 326.054688 L 285.804688 282.933594 C 287.671875 286.910156 288.722656 291.347656 288.722656 296.140625 Z M 223.285156 296.140625 C 223.285156 278.144531 237.894531 263.421875 256.003906 263.421875 C 260.796875 263.421875 265.238281 264.472656 269.328125 266.226562 L 226.207031 309.34375 C 224.335938 305.371094 223.285156 300.929688 223.285156 296.140625 Z M 256.003906 357.136719 C 243.269531 357.136719 231.113281 353.980469 219.664062 349.074219 L 225.625 343.113281 C 234.386719 348.839844 244.90625 352.113281 256.121094 352.113281 C 286.972656 352.113281 312.210938 326.988281 312.210938 296.023438 C 312.210938 284.804688 308.824219 274.289062 303.214844 265.523438 L 314.082031 254.65625 C 335.347656 268.5625 351.824219 286.324219 360.003906 295.90625 C 345.164062 313.433594 303.449219 357.136719 256.003906 357.136719 Z M 256.003906 357.136719 " style=" stroke:none;fill-rule:nonzero;fill:rgb(0%,0%,0%);fill-opacity:1;" />
</g>
</svg>