<svg id="图层_1" data-name="图层 1" xmlns="http://www.w3.org/2000/svg" viewBox="0 0 277.59 278.66"><title>webdisk</title><path d="M152,300.5H284.5c0-55.41-59.81-101-132.5-101S19.5,245.09,19.5,300.5Z" transform="translate(-10 -22.41)" style="fill:#276efc;stroke:#000;stroke-miterlimit:10;stroke-width:1.1298395925380234px"/><ellipse cx="146" cy="119.09" rx="93.5" ry="75" style="fill:#f49c5b;stroke:#000;stroke-miterlimit:10;stroke-width:1.168234535452777px"/><path d="M103.5,69.77c0,34.09-25,62.79-52.09,63.95-23.74,1-40.91-20-40.91-46.74S27.68,32.88,51.41,25.1C78.52,16.23,103.5,35.68,103.5,69.77Z" transform="translate(-10 -22.41)" style="fill:#64f419;stroke:#000;stroke-miterlimit:10"/><path d="M287,81.66c0,26.51-16.29,49.71-39.24,52.13-26.87,2.82-52.26-23.13-52.26-58.43s25.39-57.76,52.26-51.23C270.71,29.7,287,55.15,287,81.66Z" transform="translate(-10 -22.41)" style="fill:#0dff63;stroke:#000;stroke-miterlimit:10;stroke-width:1.185592281064647px"/></svg>