<?xml version="1.0" encoding="iso-8859-1"?>
<!-- Generator: Adobe Illustrator 19.0.0, SVG Export Plug-In . SVG Version: 6.00 Build 0)  -->
<svg version="1.1" id="Capa_1" xmlns="http://www.w3.org/2000/svg" xmlns:xlink="http://www.w3.org/1999/xlink" x="0px" y="0px"
	 viewBox="0 0 512 512" style="enable-background:new 0 0 512 512;" xml:space="preserve">
<path style="fill:#FFDA44;" d="M476.69,141.241H35.31c-19.5,0-35.31,15.81-35.31,35.31v264.828c0,19.5,15.81,35.31,35.31,35.31
	H476.69c19.5,0,35.31-15.81,35.31-35.31V176.552C512,157.052,496.19,141.241,476.69,141.241z M256,423.724
	c-63.382,0-114.759-51.377-114.759-114.759S192.618,194.207,256,194.207s114.759,51.377,114.759,114.759
	S319.382,423.724,256,423.724z"/>
<path style="fill:#FFCD00;" d="M476.69,88.276H274.891c-11.811,0.009-22.846-5.888-29.396-15.713l-14.301-21.539
	c-6.55-9.825-17.585-15.722-29.396-15.713H35.31C15.81,35.31,0,51.121,0,70.621v105.931c0-19.5,15.81-35.31,35.31-35.31H476.69
	c19.5,0,35.31,15.81,35.31,35.31v-52.966C512,104.086,496.19,88.276,476.69,88.276z"/>
<path style="fill:#FFDA44;" d="M256,194.207c-63.382,0-114.759,51.377-114.759,114.759S192.618,423.724,256,423.724
	s114.759-51.377,114.759-114.759S319.382,194.207,256,194.207z M256,308.966L256,308.966L256,308.966z"/>
<g>
	<path style="fill:#006DF0;" d="M256,432.552c-68.255,0-123.586-55.331-123.586-123.586S187.745,185.379,256,185.379
		s123.586,55.331,123.586,123.586C379.516,377.194,324.228,432.481,256,432.552z M256,203.034
		c-58.5,0-105.931,47.431-105.931,105.931S197.5,414.897,256,414.897s105.931-47.431,105.931-105.931
		C361.869,250.492,314.474,203.096,256,203.034z"/>
	<path style="fill:#006DF0;" d="M308.966,317.793H256c-4.873,0-8.828-3.955-8.828-8.828v-79.448c0-4.873,3.955-8.828,8.828-8.828
		s8.828,3.955,8.828,8.828v70.621h44.138c4.873,0,8.828,3.955,8.828,8.828S313.838,317.793,308.966,317.793z"/>
</g>
<g>
</g>
<g>
</g>
<g>
</g>
<g>
</g>
<g>
</g>
<g>
</g>
<g>
</g>
<g>
</g>
<g>
</g>
<g>
</g>
<g>
</g>
<g>
</g>
<g>
</g>
<g>
</g>
<g>
</g>
</svg>
