<svg height="512pt" viewBox="0 0 512 512" width="512pt" xmlns="http://www.w3.org/2000/svg"><path d="m437.019531 74.980469c-48.351562-48.351563-112.636719-74.980469-181.015625-74.980469h-.007812c-68.378906 0-132.664063 26.628906-181.015625 74.980469-48.351563 48.351562-74.980469 112.640625-74.980469 181.019531s26.628906 132.667969 74.980469 181.019531c48.351562 48.351563 112.640625 74.980469 181.019531 74.980469s132.667969-26.628906 181.019531-74.980469c48.351563-48.351562 74.980469-112.640625 74.980469-181.019531s-26.628906-132.667969-74.980469-181.019531zm16.722657 290.335937h-74.925782c10.039063-29.414062 16.085938-61.261718 17.496094-94.316406h85.175781c-2.238281 34.03125-12.042969 66.023438-27.746093 94.316406zm-197.742188 114.464844c-31.929688-19-58.410156-48.449219-77.457031-84.464844h154.914062c-19.046875 36.015625-45.527343 65.464844-77.457031 84.464844zm-91.015625-114.464844c-11.03125-28.941406-17.71875-60.898437-19.265625-94.316406h220.5625c-1.546875 33.417969-8.238281 65.375-19.269531 94.316406zm-134.472656-94.316406h85.175781c1.410156 33.054688 7.457031 64.902344 17.496094 94.316406h-74.925782c-15.703124-28.292968-25.507812-60.285156-27.746093-94.316406zm27.746093-124.316406h74.925782c-10.039063 29.414062-16.085938 61.261718-17.496094 94.316406h-85.175781c2.238281-34.03125 12.042969-66.023438 27.746093-94.316406zm197.742188-114.464844c31.929688 19 58.410156 48.449219 77.457031 84.464844h-154.914062c19.046875-36.015625 45.527343-65.464844 77.457031-84.464844zm91.015625 114.464844c11.03125 28.941406 17.71875 60.898437 19.265625 94.316406h-220.5625c1.546875-33.417969 8.238281-65.375 19.269531-94.316406zm134.472656 94.316406h-85.175781c-1.410156-33.054688-7.457031-64.902344-17.496094-94.316406h74.925782c15.703124 28.292968 25.507812 60.285156 27.746093 94.316406zm-114.683593-124.316406c-14.257813-30.796875-33.226563-58.011719-56-79.949219 49.429687 12.359375 92.472656 41.027344 123.03125 79.949219zm-165.609376-79.949219c-22.773437 21.9375-41.742187 49.152344-56 79.949219h-67.03125c30.558594-38.921875 73.601563-67.589844 123.03125-79.949219zm-56 358.582031c14.257813 30.796875 33.226563 58.011719 56 79.949219-49.429687-12.359375-92.472656-41.027344-123.03125-79.949219zm165.609376 79.949219c22.773437-21.9375 41.742187-49.15625 56-79.949219h67.03125c-30.558594 38.921875-73.601563 67.589844-123.03125 79.949219zm0 0"/></svg>