<svg height="512" viewBox="0 0 58 60" width="512" xmlns="http://www.w3.org/2000/svg"><g id="Page-1" fill="none" fill-rule="evenodd"><g id="062---Open-Folder" fill="rgb(0,0,0)" fill-rule="nonzero"><path id="Shape" d="m37 0h-36c-.55228475 0-1 .44771525-1 1v49c.00072257.3565418.19122471.6857295.5.864l15.161 8.817c.9293794.4635481 2.0324014.4134357 2.9159191-.132476.8835176-.5459117 1.4218349-1.509957 1.4230809-2.548524v-6h21c2.209139 0 4-1.790861 4-4v-5.839c5.947 9.624 1.348 16.928 1.114 17.286-.2855532.428192-.1994628 1.0031985.1989763 1.3289826.3984391.325784.9790881.2959376 1.3420237-.0689826 7.028-7.028 10.507-14.168 10.339-21.22-.1593719-4.9705305-2.0722462-9.7243773-5.4-13.42l2.954-2.955c.5100897-.5084908.674262-1.2690039.4193573-1.9426344s-.8814213-1.1349435-1.6003573-1.1783656l-13.367-.907v-14.084c0-2.209139-1.790861-4-4-4zm-18.541 43.98c-.3004071.4795623-.4594948 1.0341164-.459 1.6v11.42c.0029357.3473579-.1771262.6706335-.474.851-.2732327.1799662-.6194685.2078763-.918.074l-14.608-8.5v-46.639l17.963 11.014c.6380308.3505171 1.0352181 1.0200286 1.037 1.748v24.1c.000265.1885374-.0527745.3733089-.153.533zm24.541 3.02c0 1.1045695-.8954305 2-2 2h-21v-3.424c-.0000766-.1881975.0529555-.3725967.153-.532l2.388-3.8c.2997719-.4776339.4588536-1.0300875.459-1.594v-24.1c.0041084-1.44351-.7738959-2.776029-2.033-3.482l-16.422-10.068h32.455c1.1045695 0 2 .8954305 2 2v13.949l-3.721-.249c-1.0211076.0011032-1.8484489.8288919-1.849 1.85v.057l1.084 19.221c.036643.7227421.4957525 1.3560068 1.1712707 1.6155719.6755181.2595651 1.4405483.096671 1.9517293-.4155719l3.644-3.643c.628.663 1.194 1.318 1.718 1.967zm7.483-22.648c-.1932866.1934474-.2989194.4576113-.2923069.7309936.0066126.2733823.1248936.5321302.3273069.7160064 3.3558771 3.410305 5.3118328 7.954459 5.482 12.736.125 5.266-2.016 10.639-6.374 16.022.929-4.7.478-12.2-7.623-20.306-.3904999-.3903819-1.0235001-.3903819-1.414 0l-4.093 4.093-1.056-18.634 18.433 1.252z"/><path id="Shape" d="m5 8c-.55228475 0-1 .44771525-1 1v2c0 .5522847.44771525 1 1 1s1-.4477153 1-1v-2c0-.55228475-.44771525-1-1-1z"/><path id="Shape" d="m5 15c-.55228475 0-1 .4477153-1 1v18c0 .5522847.44771525 1 1 1s1-.4477153 1-1v-18c0-.5522847-.44771525-1-1-1z"/></g></g></svg>