<svg id="Bold" enable-background="new 0 0 24 24" height="512" viewBox="0 0 24 24" width="512" xmlns="http://www.w3.org/2000/svg"><path d="m21 0h-18c-1.65 0-3 1.35-3 3v16c0 1.65 1.35 3 3 3h6.96l.35-2h-7.31c-.55 0-1-.45-1-1v-14h20v4.76c.62.15 1.2.47 1.67.94l.33.33v-8.03c0-1.65-1.35-3-3-3z"/><path d="m19.25 6.5h-14.5c-.41 0-.75.34-.75.75v4.5c0 .41.34.75.75.75h12.17l1.5-1.5h-12.92v-3h13v2.92l.04-.04c.5-.5 1-.8 1.46-.98v-2.65c0-.41-.34-.75-.75-.75z"/><path d="m15.43 13.99-1.51 1.5h-9.12c-.41 0-.75-.34-.75-.75s.34-.75.75-.75z"/><path d="m12.42 16.99-1.31 1.31c-.06.06-.12.12-.16.19h-6.15c-.41 0-.75-.34-.75-.75s.34-.75.75-.75z"/><path d="m23.487 13.351-1.237-1.237c-.49-.491-1.386-.737-2.298.177l-7.425 7.424c-.108.109-.182.249-.208.4l-.53 3.005c-.043.241.035.488.208.661.142.142.333.22.53.22.043 0 .087-.004.13-.011l3.005-.53c.152-.027.292-.1.4-.208l7.425-7.425c.683-.684.683-1.794 0-2.476z"/><path d="m18.5 10.92v.08h-.08z"/></svg>