<?xml version="1.0" encoding="iso-8859-1"?>
<!-- Generator: Adobe Illustrator 19.0.0, SVG Export Plug-In . SVG Version: 6.00 Build 0)  -->
<svg version="1.1" id="Capa_1" xmlns="http://www.w3.org/2000/svg" xmlns:xlink="http://www.w3.org/1999/xlink" x="0px" y="0px"
	 viewBox="0 0 512 512" style="enable-background:new 0 0 512 512;" xml:space="preserve">
<g>
	<g>
		<g>
			<path d="M469.333,170.667H106.667c-19.781,0-36.667,13.292-41.375,32.427c-0.021,0.073-0.052,0.156-0.073,0.229L2.771,414.177
				c-0.677,2.302-0.563,4.771,0.333,7C9.646,437.469,25.167,448,42.667,448h362.667c19.104,0,35.719-12.646,40.938-30.948
				c0.094-0.229,0.177-0.458,0.25-0.698l63.375-189.833c0.208-0.604,0.344-1.229,0.438-1.854C511.448,220.719,512,217,512,213.333
				C512,189.802,492.865,170.667,469.333,170.667z"/>
			<path d="M9.135,285.396c0.521,0.083,1.031,0.115,1.542,0.115c4.656,0,8.865-3.052,10.219-7.635l23.771-80.271
				c0.031-0.125,0.063-0.24,0.094-0.365c7.292-28.208,32.74-47.906,61.906-47.906h328.708c3.469,0,6.719-1.688,8.719-4.521
				c1.99-2.823,2.49-6.448,1.333-9.719c-6.042-17-22.156-28.427-40.094-28.427h-198.25l-39.542-39.542c-2-2-4.708-3.125-7.542-3.125
				H42.667C19.135,64,0,83.135,0,106.667v168.177C0,280.146,3.896,284.635,9.135,285.396z"/>
		</g>
	</g>
</g>
<g>
</g>
<g>
</g>
<g>
</g>
<g>
</g>
<g>
</g>
<g>
</g>
<g>
</g>
<g>
</g>
<g>
</g>
<g>
</g>
<g>
</g>
<g>
</g>
<g>
</g>
<g>
</g>
<g>
</g>
</svg>
