<svg id="Layer" enable-background="new 0 0 512 512" height="512" viewBox="0 0 512 512" width="512" xmlns="http://www.w3.org/2000/svg"><path d="m458 80h-202v-26c0-29.776-24.225-54-54-54h-148c-29.775 0-54 24.224-54 54v50 306c0 29.776 24.225 54 54 54h234c13.255 0 24-10.745 24-24s-10.745-24-24-24h-234c-3.309 0-6-2.691-6-6v-282h410c3.309 0 6 2.691 6 6v226c0 13.255 10.745 24 24 24s24-10.745 24-24v-226c0-29.776-24.225-54-54-54zm-404-32h148c3.309 0 6 2.691 6 6v26h-160v-26c0-3.309 2.691-6 6-6z"/><path d="m408 368c-13.255 0-24 10.745-24 24v24h-24c-13.255 0-24 10.745-24 24s10.745 24 24 24h24v24c0 13.255 10.745 24 24 24s24-10.745 24-24v-24h24c13.255 0 24-10.745 24-24s-10.745-24-24-24h-24v-24c0-13.255-10.745-24-24-24z"/></svg>