<svg id="Layer" enable-background="new 0 0 512 512" height="512" viewBox="0 0 512 512" width="512" xmlns="http://www.w3.org/2000/svg"><path d="m192 256h40v40c0 13.255 10.745 24 24 24s24-10.745 24-24v-40h40c13.255 0 24-10.745 24-24s-10.745-24-24-24h-40v-40c0-13.255-10.745-24-24-24s-24 10.745-24 24v40h-40c-13.255 0-24 10.745-24 24s10.745 24 24 24z"/><path d="m366.828 12.887c-8.31-8.311-19.359-12.887-31.112-12.887h-251.716c-24.262 0-44 19.738-44 44v424c0 24.262 19.738 44 44 44h344c24.262 0 44-19.738 44-44v-331.716c0-11.753-4.576-22.802-12.887-31.112zm39.231 107.113h-54.059v-54.059zm-102.059-72v76c0 24.262 19.738 44 44 44h76v208h-336v-328zm-216 416v-40h336v40z"/></svg>