<?xml version="1.0" encoding="iso-8859-1"?>
<!-- Generator: Adobe Illustrator 19.0.0, SVG Export Plug-In . SVG Version: 6.00 Build 0)  -->
<svg version="1.1" id="Capa_1" xmlns="http://www.w3.org/2000/svg" xmlns:xlink="http://www.w3.org/1999/xlink" x="0px" y="0px"
	 viewBox="0 0 469.333 469.333" style="enable-background:new 0 0 469.333 469.333;" xml:space="preserve">
<g>
	<g>
		<path d="M384,42.667h-89.28C285.973,17.92,262.507,0,234.667,0s-51.307,17.92-60.053,42.667h-89.28
			c-23.573,0-42.667,19.093-42.667,42.667v341.333c0,23.573,19.093,42.667,42.667,42.667H384c23.573,0,42.667-19.093,42.667-42.667
			V85.333C426.667,61.76,407.573,42.667,384,42.667z M234.667,42.667C246.4,42.667,256,52.16,256,64s-9.6,21.333-21.333,21.333
			S213.333,75.84,213.333,64S222.933,42.667,234.667,42.667z M384,426.667H85.333V85.333H128v64h213.333v-64H384V426.667z"/>
	</g>
</g>
<g>
</g>
<g>
</g>
<g>
</g>
<g>
</g>
<g>
</g>
<g>
</g>
<g>
</g>
<g>
</g>
<g>
</g>
<g>
</g>
<g>
</g>
<g>
</g>
<g>
</g>
<g>
</g>
<g>
</g>
</svg>
