<svg height="480pt" viewBox="0 -104 480 480" width="480pt" xmlns="http://www.w3.org/2000/svg"><path d="m344 0h-208c-75.109375 0-136 60.890625-136 136s60.890625 136 136 136h208c75.109375 0 136-60.890625 136-136s-60.890625-136-136-136zm0 256h-208c-66.273438 0-120-53.726562-120-120s53.726562-120 120-120h208c66.273438 0 120 53.726562 120 120s-53.726562 120-120 120zm0 0"/><path d="m344 48h-208c-24.484375.074219-47.839844 10.296875-64.503906 28.230469-1.933594 2.085937-2.617188 5.039062-1.796875 7.761719.824219 2.722656 3.03125 4.800781 5.796875 5.464843 21.441406 5.25 36.519531 24.46875 36.519531 46.542969s-15.078125 41.292969-36.519531 46.542969c-2.765625.664062-4.972656 2.742187-5.796875 5.464843-.820313 2.722657-.136719 5.675782 1.796875 7.761719 16.664062 17.933594 40.019531 28.15625 64.503906 28.230469h208c48.601562 0 88-39.398438 88-88s-39.398438-88-88-88zm0 160h-208c-15.707031-.039062-30.976562-5.203125-43.480469-14.710938 21.730469-10.824218 35.46875-33.011718 35.46875-57.289062s-13.738281-46.464844-35.46875-57.289062c12.503907-9.507813 27.773438-14.671876 43.480469-14.710938h208c39.765625 0 72 32.234375 72 72s-32.234375 72-72 72zm0 0"/><path d="m96 136c0-17.671875-14.328125-32-32-32s-32 14.328125-32 32 14.328125 32 32 32 32-14.328125 32-32zm-32 16c-8.835938 0-16-7.164062-16-16s7.164062-16 16-16 16 7.164062 16 16-7.164062 16-16 16zm0 0"/><path d="m144 80h32v16h-32zm0 0"/><path d="m192 80h144v16h-144zm0 0"/><path d="m144 128h96v16h-96zm0 0"/><path d="m256 128h80v16h-80zm0 0"/><path d="m144 176h64v16h-64zm0 0"/><path d="m224 176h112v16h-112zm0 0"/></svg>