<svg xmlns="http://www.w3.org/2000/svg" viewBox="0 0 171.97 158.58"><title>sortby</title><g id="frame"><path d="M180.63,75.5a8.9,8.9,0,0,1,8.87,8.87V216.63a8.9,8.9,0,0,1-8.87,8.87H80.37a8.9,8.9,0,0,1-8.87-8.87V84.37a8.9,8.9,0,0,1,8.87-8.87H180.63Z" transform="translate(-70.3 -68.71)" style="fill:#fff"/><path d="M180.63,75.5a8.9,8.9,0,0,1,8.87,8.87V216.63a8.9,8.9,0,0,1-8.87,8.87H80.37a8.9,8.9,0,0,1-8.87-8.87V84.37a8.9,8.9,0,0,1,8.87-8.87H180.63Z" transform="translate(-70.3 -68.71)" style="fill:none;stroke:#000;stroke-miterlimit:10;stroke-width:2.4000000953674316px"/></g><g id="content"><line x1="13.2" y1="144.79" x2="107.2" y2="144.79" style="fill:none;stroke:#000;stroke-miterlimit:10;stroke-width:2.5px"/><line x1="13.2" y1="124.79" x2="107.2" y2="124.79" style="fill:none;stroke:#000;stroke-miterlimit:10;stroke-width:2.5px"/><line x1="13.2" y1="104.79" x2="107.2" y2="104.79" style="fill:none;stroke:#000;stroke-miterlimit:10;stroke-width:2.5px"/><line x1="13.2" y1="84.79" x2="107.2" y2="84.79" style="fill:none;stroke:#000;stroke-miterlimit:10;stroke-width:2.5px"/><line x1="13.2" y1="64.79" x2="107.2" y2="64.79" style="fill:none;stroke:#000;stroke-miterlimit:10;stroke-width:2.5px"/><line x1="13.2" y1="44.79" x2="107.2" y2="44.79" style="fill:none;stroke:#000;stroke-miterlimit:10;stroke-width:2.5px"/><line x1="13.2" y1="24.79" x2="107.2" y2="24.79" style="fill:none;stroke:#000;stroke-miterlimit:10;stroke-width:2.5px"/></g><g id="arrow"><rect x="149.2" y="16.79" width="8" height="126" style="stroke:#000;stroke-miterlimit:10;stroke-width:0.7071067811865475px"/><path d="M208,94l11.5-9h8l12,7L223.24,70c-1.85,2.68-12,19.34-15.24,24" transform="translate(-70.3 -68.71)" style="stroke:#000;stroke-miterlimit:10;stroke-width:1.5px"/><path d="M208,202l11.5,9h8l12-7-16.26,22c-1.85-2.68-12-19.34-15.24-24" transform="translate(-70.3 -68.71)" style="stroke:#000;stroke-miterlimit:10;stroke-width:1.5px"/></g></svg>