<?xml version="1.0" encoding="utf-8"?>
<!-- Generator: Adobe Illustrator 18.1.1, SVG Export Plug-In . SVG Version: 6.00 Build 0)  -->
<svg version="1.1" xmlns="http://www.w3.org/2000/svg" xmlns:xlink="http://www.w3.org/1999/xlink" x="0px" y="0px"
	 width="23.0000267px" height="30.0000305px" viewBox="0 0 23.0000267 30.0000305"
	 enable-background="new 0 0 23.0000267 30.0000305" xml:space="preserve">
<g id="Icons_Outline" display="none">
	<g display="inline">
		<g>
			<path fill="#FFFFFF" stroke="#666666" stroke-linejoin="round" stroke-miterlimit="10" d="M22.5,6.0000305l-5-3.5h-2v-2h-8v2h-4
				v-2h-3v29h3v-3h4v3h8v-3h4v3h3V6.0000305z M7.5,23.5000305h-4v-4h4V23.5000305z M7.5,16.5000305h-4v-4h4V16.5000305z
				 M7.5,9.5000305h-4v-4h4V9.5000305z M19.5,23.5000305h-4v-4h4V23.5000305z M19.5,16.5000305h-4v-4h4V16.5000305z M19.5,9.5000305
				h-4v-4h4V9.5000305z"/>
		</g>
		<g>
			<path fill="#E6E6E6" d="M17,7.0000305c-0.2763672,0-1-0.7236328-1-1v-5c0-0.2021484,0.3720703-0.3847656,0.5585938-0.4619141
				C16.6201172,0.5127258,16.8105469,0.5000305,16.875,0.5000305c0.1298828,0,0.3203125,0.0507812,0.4160156,0.1464844l5.03125,5
				c0.1425781,0.1425781,0.2011719,0.6083984,0.1240234,0.7949219S22.2021484,7.0000305,22,7.0000305H17z"/>
			<g>
				<path fill="#666666" d="M17,1.0000305l5,5h-5V1.0000305 M16.9997711,0c-0.1288147,0-0.258728,0.0249023-0.3824463,0.076149
					C16.2436371,0.2309341,16,0.5955734,16,1.0000305v5c0,0.5522766,0.4477234,1,1,1h5
					c0.4044647,0,0.769104-0.2436371,0.9238739-0.6173172c0.1547852-0.3736725,0.0692291-0.8037949-0.2167664-1.0897903l-5-5
					C17.5158081,0.1016235,17.2600098,0,16.9997711,0L16.9997711,0z"/>
			</g>
		</g>
	</g>
</g>
<g id="expanded">
	<g>
		<path fill="#808080" d="M20,9.5000305c0,0.2763672-0.2236328,0.5-0.5,0.5h-4c-0.2763672,0-0.5-0.2236328-0.5-0.5v-4
			c0-0.2763672,0.2236328-0.5,0.5-0.5H16v-2h-0.5c-0.2763672,0-0.5-0.2236328-0.5-0.5v-1.5H8v1.5c0,0.2763672-0.2236328,0.5-0.5,0.5
			h-4c-0.2763672,0-0.5-0.2236328-0.5-0.5v-1.5H1v28h2v-2.5c0-0.2763672,0.2236328-0.5,0.5-0.5h4c0.2763672,0,0.5,0.2236328,0.5,0.5
			v2.5h7v-2.5c0-0.2763672,0.2236328-0.5,0.5-0.5h4c0.2763672,0,0.5,0.2236328,0.5,0.5v2.5h2v-22h-2V9.5000305z M8,23.5000305
			c0,0.2763672-0.2236328,0.5-0.5,0.5h-4c-0.2763672,0-0.5-0.2236328-0.5-0.5v-4c0-0.2763672,0.2236328-0.5,0.5-0.5h4
			c0.2763672,0,0.5,0.2236328,0.5,0.5V23.5000305z M8,16.5000305c0,0.2763672-0.2236328,0.5-0.5,0.5h-4
			c-0.2763672,0-0.5-0.2236328-0.5-0.5v-4c0-0.2763672,0.2236328-0.5,0.5-0.5h4c0.2763672,0,0.5,0.2236328,0.5,0.5V16.5000305z
			 M8,9.5000305c0,0.2763672-0.2236328,0.5-0.5,0.5h-4c-0.2763672,0-0.5-0.2236328-0.5-0.5v-4c0-0.2763672,0.2236328-0.5,0.5-0.5h4
			c0.2763672,0,0.5,0.2236328,0.5,0.5V9.5000305z M20,23.5000305c0,0.2763672-0.2236328,0.5-0.5,0.5h-4
			c-0.2763672,0-0.5-0.2236328-0.5-0.5v-4c0-0.2763672,0.2236328-0.5,0.5-0.5h4c0.2763672,0,0.5,0.2236328,0.5,0.5V23.5000305z
			 M20,16.5000305c0,0.2763672-0.2236328,0.5-0.5,0.5h-4c-0.2763672,0-0.5-0.2236328-0.5-0.5v-4c0-0.2763672,0.2236328-0.5,0.5-0.5
			h4c0.2763672,0,0.5,0.2236328,0.5,0.5V16.5000305z"/>
		<path d="M22.9882812,5.95224c-0.0119019-0.2431641-0.1018677-0.4800415-0.281189-0.6593018l-5-5
			c-0.1912842-0.1913452-0.4470825-0.2929688-0.7073364-0.2929688c-0.1287842,0-0.258728,0.0249023-0.3824463,0.0761719
			C16.2436523,0.2309265,16,0.5955505,16,1.0000305v-0.5c0-0.2763672-0.2236328-0.5-0.5-0.5h-8c-0.2763672,0-0.5,0.2236328-0.5,0.5
			v1.5H4v-1.5c0-0.2763672-0.2236328-0.5-0.5-0.5h-3c-0.2763672,0-0.5,0.2236328-0.5,0.5v29c0,0.2763672,0.2236328,0.5,0.5,0.5h3
			c0.2763672,0,0.5-0.2236328,0.5-0.5v-2.5h3v2.5c0,0.2763672,0.2236328,0.5,0.5,0.5h8c0.2763672,0,0.5-0.2236328,0.5-0.5v-2.5h3
			v2.5c0,0.2763672,0.2236328,0.5,0.5,0.5h3c0.2763672,0,0.5-0.2236328,0.5-0.5v-23.5
			C23,5.9831238,22.9899902,5.9688416,22.9882812,5.95224z M22,29.0000305h-2v-2.5c0-0.2763672-0.2236328-0.5-0.5-0.5h-4
			c-0.2763672,0-0.5,0.2236328-0.5,0.5v2.5H8v-2.5c0-0.2763672-0.2236328-0.5-0.5-0.5h-4c-0.2763672,0-0.5,0.2236328-0.5,0.5v2.5H1
			v-28h2v1.5c0,0.2763672,0.2236328,0.5,0.5,0.5h4c0.2763672,0,0.5-0.2236328,0.5-0.5v-1.5h7v1.5c0,0.2763672,0.2236328,0.5,0.5,0.5
			H16v2h-0.5c-0.2763672,0-0.5,0.2236328-0.5,0.5v4c0,0.2763672,0.2236328,0.5,0.5,0.5h4c0.2763672,0,0.5-0.2236328,0.5-0.5v-2.5h2
			V29.0000305z M17,7.0000305h2v2h-3v-3C16,6.5522766,16.4477539,7.0000305,17,7.0000305z M22,6.0000305h-3h-2v-5L22,6.0000305z"/>
		<path d="M7.5,5.0000305h-4c-0.2763672,0-0.5,0.2236328-0.5,0.5v4c0,0.2763672,0.2236328,0.5,0.5,0.5h4
			c0.2763672,0,0.5-0.2236328,0.5-0.5v-4C8,5.2236633,7.7763672,5.0000305,7.5,5.0000305z M7,9.0000305H4v-3h3V9.0000305z"/>
		<path d="M7.5,19.0000305h-4c-0.2763672,0-0.5,0.2236328-0.5,0.5v4c0,0.2763672,0.2236328,0.5,0.5,0.5h4
			c0.2763672,0,0.5-0.2236328,0.5-0.5v-4C8,19.2236633,7.7763672,19.0000305,7.5,19.0000305z M7,23.0000305H4v-3h3V23.0000305z"/>
		<path d="M7.5,12.0000305h-4c-0.2763672,0-0.5,0.2236328-0.5,0.5v4c0,0.2763672,0.2236328,0.5,0.5,0.5h4
			c0.2763672,0,0.5-0.2236328,0.5-0.5v-4C8,12.2236633,7.7763672,12.0000305,7.5,12.0000305z M7,16.0000305H4v-3h3V16.0000305z"/>
		<path d="M19.5,19.0000305h-4c-0.2763672,0-0.5,0.2236328-0.5,0.5v4c0,0.2763672,0.2236328,0.5,0.5,0.5h4
			c0.2763672,0,0.5-0.2236328,0.5-0.5v-4C20,19.2236633,19.7763672,19.0000305,19.5,19.0000305z M19,23.0000305h-3v-3h3V23.0000305z
			"/>
		<path d="M19.5,12.0000305h-4c-0.2763672,0-0.5,0.2236328-0.5,0.5v4c0,0.2763672,0.2236328,0.5,0.5,0.5h4
			c0.2763672,0,0.5-0.2236328,0.5-0.5v-4C20,12.2236633,19.7763672,12.0000305,19.5,12.0000305z M19,16.0000305h-3v-3h3V16.0000305z
			"/>
		<polygon fill="#666666" points="17,1.0000305 17,6.0000305 19,6.0000305 22,6.0000305 		"/>
	</g>
</g>
<g id="Icons" display="none">
	<g display="inline">
		<g>
			<path fill="#808080" stroke="#000000" stroke-linejoin="round" stroke-miterlimit="10" d="M22.5,6.0000305l-5-3.5h-2v-2h-8v2h-4
				v-2h-3v29h3v-3h4v3h8v-3h4v3h3V6.0000305z M7.5,23.5000305h-4v-4h4V23.5000305z M7.5,16.5000305h-4v-4h4V16.5000305z
				 M7.5,9.5000305h-4v-4h4V9.5000305z M19.5,23.5000305h-4v-4h4V23.5000305z M19.5,16.5000305h-4v-4h4V16.5000305z M19.5,9.5000305
				h-4v-4h4V9.5000305z"/>
		</g>
		<g>
			<path fill="#666666" d="M17,6.5000305c-0.2763672,0-0.5-0.2236328-0.5-0.5v-5
				c0-0.2021484,0.1220703-0.3847656,0.3085938-0.4619141C16.8701172,0.5127258,16.9355469,0.5000305,17,0.5000305
				c0.1298828,0,0.2578125,0.0507812,0.3535156,0.1464844l5,5c0.1425781,0.1425781,0.1855469,0.3583984,0.1083984,0.5449219
				S22.2021484,6.5000305,22,6.5000305H17z"/>
			<path d="M17,1.0000305l5,5h-5V1.0000305 M16.9997711,0c-0.1288147,0-0.258728,0.0249023-0.3824463,0.076149
				C16.2436371,0.2309341,16,0.5955734,16,1.0000305v5c0,0.5522766,0.4477234,1,1,1h5
				c0.4044647,0,0.769104-0.2436371,0.9238739-0.6173172c0.1547852-0.3736725,0.0692291-0.8037949-0.2167664-1.0897903l-5-5
				C17.5158081,0.1016235,17.2600098,0,16.9997711,0L16.9997711,0z"/>
		</g>
	</g>
</g>
</svg>
