<?xml version="1.0" encoding="utf-8"?>
<!-- Generator: Adobe Illustrator 18.1.1, SVG Export Plug-In . SVG Version: 6.00 Build 0)  -->
<svg version="1.1" xmlns="http://www.w3.org/2000/svg" xmlns:xlink="http://www.w3.org/1999/xlink" x="0px" y="0px"
	 width="23.0000286px" height="30.0000305px" viewBox="0 0 23.0000286 30.0000305"
	 enable-background="new 0 0 23.0000286 30.0000305" xml:space="preserve">
<g id="Icons_Outline" display="none">
	<polygon display="inline" fill="#FFFFFF" stroke="#666666" stroke-linejoin="round" stroke-miterlimit="10" points="
		0.5,29.5000305 0.5,0.5000305 17,0.5000305 22.5,6.0000305 22.5,29.5000305 	"/>
	<g display="inline">
		<path fill="#E6E6E6" d="M17,7.0000305c-0.2763672,0-1-0.7236328-1-1v-5c0-0.2021484,0.3720703-0.3847656,0.5585938-0.4619141
			C16.6201172,0.5127258,16.8105469,0.5000305,16.875,0.5000305c0.1298828,0,0.3203125,0.0507812,0.4160156,0.1464844l5.03125,5
			c0.1425781,0.1425781,0.2011719,0.6083984,0.1240234,0.7949219S22.2021484,7.0000305,22,7.0000305H17z"/>
		<path fill="#666666" d="M17,1.0000305l5,5h-5V1.0000305 M16.9997787,0c-0.12883,0-0.258728,0.0249023-0.3824615,0.076149
			C16.2436371,0.2309341,16,0.5955734,16,1.0000305v5c0,0.5522766,0.4477234,1,1,1h5
			c0.4044571,0,0.7690964-0.2436371,0.9238815-0.6173172c0.1547775-0.3736725,0.0692215-0.8037949-0.216774-1.0897903l-5-5
			C17.5158081,0.1016235,17.2600174,0,16.9997787,0L16.9997787,0z"/>
	</g>
	<g display="inline">
		<path fill="#666666" d="M4,21.0000305h15l-4-6.9844236l-5,3.9844236l-3-2.5638628L4,21.0000305z"/>
		<rect x="4.5" y="10.5000305" fill="none" stroke="#666666" stroke-miterlimit="10" width="14" height="10"/>
		<circle fill="#666666" cx="9.5" cy="13.5000305" r="1.5"/>
	</g>
</g>
<g id="expanded">
	<g>
		<path fill="#FFFFFF" d="M10,18.0000305l5-3.984436l3,5.2383423v-8.2539062H5v8.1453857l2-3.7092896L10,18.0000305z
			 M9.5,12.0000305c0.8284302,0,1.5,0.6715698,1.5,1.5s-0.6715698,1.5-1.5,1.5s-1.5-0.6715698-1.5-1.5
			S8.6715698,12.0000305,9.5,12.0000305z"/>
		<path fill="#FFFFFF" d="M16,6.0000305v-5H1v28h21v-22h-5C16.4477539,7.0000305,16,6.5522766,16,6.0000305z M19,21.0000305H4v-11
			h15V21.0000305z"/>
		<path d="M22.9874878,5.9372864c-0.0151978-0.237915-0.1047363-0.46875-0.2803955-0.6443481l-5-5
			c-0.1912842-0.1913452-0.4470825-0.2929688-0.7073364-0.2929688c0,0-0.0001831,0.000061-0.0003052,0.000061H0.5
			c-0.2763672,0-0.5,0.2236328-0.5,0.5v29c0,0.2763672,0.2236328,0.5,0.5,0.5h22c0.2763672,0,0.5-0.2236328,0.5-0.5v-23.5
			C23,5.978241,22.9902954,5.9585876,22.9874878,5.9372864z M22,29.0000305H1v-28h15v5c0,0.5522461,0.4477539,1,1,1h5V29.0000305z
			 M17,6.0000305v-5l5,5H17z"/>
		<polygon fill="#E6E6E6" points="17,1.0000305 17,6.0000305 22,6.0000305 		"/>
		<path fill="#7FBC49" d="M4,21.0000305h15v-11H4V21.0000305z M5,11.0000305h13v8.2539062l-3-5.2383423l-5,3.984436l-3-2.5639038
			l-2,3.7092896V11.0000305z"/>
		<circle fill="#7FBC49" cx="9.5" cy="13.5000305" r="1.5"/>
	</g>
</g>
<g id="Icons" display="none">
	<polygon display="inline" fill="#FFFFFF" stroke="#000000" stroke-linejoin="round" stroke-miterlimit="10" points="
		0.5,29.5000305 0.5,0.5000305 17,0.5000305 22.5,6.0000305 22.5,29.5000305 	"/>
	<g display="inline">
		<path fill="#E6E6E6" d="M17,6.5000305c-0.2763672,0-0.5-0.2236328-0.5-0.5v-5
			c0-0.2021484,0.1220703-0.3847656,0.3085938-0.4619141C16.8701172,0.5127258,16.9355469,0.5000305,17,0.5000305
			c0.1298828,0,0.2578125,0.0507812,0.3535156,0.1464844l5,5c0.1425781,0.1425781,0.1855469,0.3583984,0.1083984,0.5449219
			S22.2021484,6.5000305,22,6.5000305H17z"/>
		<path d="M17,1.0000305l5,5h-5V1.0000305 M16.9997787,0c-0.12883,0-0.258728,0.0249023-0.3824615,0.076149
			C16.2436371,0.2309341,16,0.5955734,16,1.0000305v5c0,0.5522766,0.4477234,1,1,1h5
			c0.4044571,0,0.7690964-0.2436371,0.9238815-0.6173172c0.1547775-0.3736725,0.0692215-0.8037949-0.216774-1.0897903l-5-5
			C17.5158081,0.1016235,17.2600174,0,16.9997787,0L16.9997787,0z"/>
	</g>
	<g display="inline">
		<path fill="#7FBC49" d="M4,21.0000305h15l-4-6.9844236l-5,3.9844236l-3-2.5638628L4,21.0000305z"/>
		<rect x="4.5" y="10.5000305" fill="none" stroke="#7FBC49" stroke-miterlimit="10" width="14" height="10"/>
		<circle fill="#7FBC49" cx="9.5" cy="13.5000305" r="1.5"/>
	</g>
</g>
</svg>
