<?xml version="1.0" encoding="iso-8859-1"?>
<!-- Generator: Adobe Illustrator 16.0.0, SVG Export Plug-In . SVG Version: 6.00 Build 0)  -->
<!DOCTYPE svg PUBLIC "-//W3C//DTD SVG 1.1//EN" "http://www.w3.org/Graphics/SVG/1.1/DTD/svg11.dtd">
<svg version="1.1" id="Capa_1" xmlns="http://www.w3.org/2000/svg" xmlns:xlink="http://www.w3.org/1999/xlink" x="0px" y="0px"
	 width="80.429px" height="80.428px" viewBox="0 0 80.429 80.428" style="enable-background:new 0 0 80.429 80.428;"
	 xml:space="preserve">
<g>
	<path d="M37.242,2.971c14.689,0,27.651,8.476,33.688,21.325l4.201-8.719l5.298,2.552l-8.721,18.102L53.605,27.51l2.553-5.298
		l9.43,4.542C60.494,15.964,49.594,8.853,37.242,8.853C19.95,8.853,5.88,22.921,5.88,40.214s14.07,31.362,31.362,31.362
		c10.183,0,19.769-4.975,25.647-13.307l4.805,3.391c-6.979,9.892-18.361,15.797-30.452,15.797C16.707,77.458,0,60.75,0,40.214
		S16.707,2.971,37.242,2.971z"/>
</g>
<g>
</g>
<g>
</g>
<g>
</g>
<g>
</g>
<g>
</g>
<g>
</g>
<g>
</g>
<g>
</g>
<g>
</g>
<g>
</g>
<g>
</g>
<g>
</g>
<g>
</g>
<g>
</g>
<g>
</g>
</svg>
